# Tiled2Unity generated file. Do not modify by hand.
# Wavefront file for 'untitled_mesh_0003.obj'

# Vertices (Count = 336)
v -1136 -96 0
v -1152 -96 0
v -1152 -80 0
v -1136 -80 0
v -1136 -112 0
v -1152 -112 0
v -1152 -96 0
v -1136 -96 0
v -1056 -144 0
v -1072 -144 0
v -1072 -128 0
v -1056 -128 0
v -608 -144 0
v -624 -144 0
v -624 -128 0
v -608 -128 0
v -1056 -160 0
v -1072 -160 0
v -1072 -144 0
v -1056 -144 0
v -608 -160 0
v -624 -160 0
v -624 -144 0
v -608 -144 0
v -1408 -176 0
v -1424 -176 0
v -1424 -160 0
v -1408 -160 0
v -1408 -192 0
v -1424 -192 0
v -1424 -176 0
v -1408 -176 0
v -224 -192 0
v -240 -192 0
v -240 -176 0
v -224 -176 0
v -224 -208 0
v -240 -208 0
v -240 -192 0
v -224 -192 0
v -800 -272 0
v -816 -272 0
v -816 -256 0
v -800 -256 0
v -800 -288 0
v -816 -288 0
v -816 -272 0
v -800 -272 0
v -272 -336 0
v -288 -336 0
v -288 -320 0
v -272 -320 0
v -272 -352 0
v -288 -352 0
v -288 -336 0
v -272 -336 0
v -368 -368 0
v -384 -368 0
v -384 -352 0
v -368 -352 0
v -368 -384 0
v -384 -384 0
v -384 -368 0
v -368 -368 0
v -1136 -400 0
v -1152 -400 0
v -1152 -384 0
v -1136 -384 0
v -1136 -416 0
v -1152 -416 0
v -1152 -400 0
v -1136 -400 0
v -1008 -416 0
v -1024 -416 0
v -1024 -400 0
v -1008 -400 0
v -1360 -432 0
v -1376 -432 0
v -1376 -416 0
v -1360 -416 0
v -1008 -432 0
v -1024 -432 0
v -1024 -416 0
v -1008 -416 0
v -1360 -448 0
v -1376 -448 0
v -1376 -432 0
v -1360 -432 0
v -688 -464 0
v -704 -464 0
v -704 -448 0
v -688 -448 0
v -688 -480 0
v -704 -480 0
v -704 -464 0
v -688 -464 0
v -144 -576 0
v -160 -576 0
v -160 -560 0
v -144 -560 0
v -1024 -592 0
v -1040 -592 0
v -1040 -576 0
v -1024 -576 0
v -432 -592 0
v -448 -592 0
v -448 -576 0
v -432 -576 0
v -144 -592 0
v -160 -592 0
v -160 -576 0
v -144 -576 0
v -1024 -608 0
v -1040 -608 0
v -1040 -592 0
v -1024 -592 0
v -432 -608 0
v -448 -608 0
v -448 -592 0
v -432 -592 0
v -1440 -624 0
v -1456 -624 0
v -1456 -608 0
v -1440 -608 0
v -1440 -640 0
v -1456 -640 0
v -1456 -624 0
v -1440 -624 0
v -1312 -656 0
v -1328 -656 0
v -1328 -640 0
v -1312 -640 0
v -880 -656 0
v -896 -656 0
v -896 -640 0
v -880 -640 0
v -1312 -672 0
v -1328 -672 0
v -1328 -656 0
v -1312 -656 0
v -880 -672 0
v -896 -672 0
v -896 -656 0
v -880 -656 0
v -80 -768 0
v -96 -768 0
v -96 -752 0
v -80 -752 0
v -1440 -784 0
v -1456 -784 0
v -1456 -768 0
v -1440 -768 0
v -80 -784 0
v -96 -784 0
v -96 -768 0
v -80 -768 0
v -1440 -800 0
v -1456 -800 0
v -1456 -784 0
v -1440 -784 0
v -1136 -816 0
v -1152 -816 0
v -1152 -800 0
v -1136 -800 0
v -1280 -832 0
v -1296 -832 0
v -1296 -816 0
v -1280 -816 0
v -1136 -832 0
v -1152 -832 0
v -1152 -816 0
v -1136 -816 0
v -1280 -848 0
v -1296 -848 0
v -1296 -832 0
v -1280 -832 0
v -304 -848 0
v -320 -848 0
v -320 -832 0
v -304 -832 0
v -304 -864 0
v -320 -864 0
v -320 -848 0
v -304 -848 0
v -912 -960 0
v -928 -960 0
v -928 -944 0
v -912 -944 0
v -912 -976 0
v -928 -976 0
v -928 -960 0
v -912 -960 0
v -1376 -992 0
v -1392 -992 0
v -1392 -976 0
v -1376 -976 0
v -432 -992 0
v -448 -992 0
v -448 -976 0
v -432 -976 0
v -1376 -1008 0
v -1392 -1008 0
v -1392 -992 0
v -1376 -992 0
v -432 -1008 0
v -448 -1008 0
v -448 -992 0
v -432 -992 0
v -1216 -1088 0
v -1232 -1088 0
v -1232 -1072 0
v -1216 -1072 0
v -288 -1088 0
v -304 -1088 0
v -304 -1072 0
v -288 -1072 0
v -1216 -1104 0
v -1232 -1104 0
v -1232 -1088 0
v -1216 -1088 0
v -288 -1104 0
v -304 -1104 0
v -304 -1088 0
v -288 -1088 0
v -624 -1120 0
v -640 -1120 0
v -640 -1104 0
v -624 -1104 0
v -624 -1136 0
v -640 -1136 0
v -640 -1120 0
v -624 -1120 0
v -1488 -1184 0
v -1504 -1184 0
v -1504 -1168 0
v -1488 -1168 0
v -864 -1184 0
v -880 -1184 0
v -880 -1168 0
v -864 -1168 0
v -1488 -1200 0
v -1504 -1200 0
v -1504 -1184 0
v -1488 -1184 0
v -864 -1200 0
v -880 -1200 0
v -880 -1184 0
v -864 -1184 0
v -256 -1200 0
v -272 -1200 0
v -272 -1184 0
v -256 -1184 0
v -1088 -1216 0
v -1104 -1216 0
v -1104 -1200 0
v -1088 -1200 0
v -256 -1216 0
v -272 -1216 0
v -272 -1200 0
v -256 -1200 0
v -1088 -1232 0
v -1104 -1232 0
v -1104 -1216 0
v -1088 -1216 0
v -1328 -1264 0
v -1344 -1264 0
v -1344 -1248 0
v -1328 -1248 0
v -560 -1264 0
v -576 -1264 0
v -576 -1248 0
v -560 -1248 0
v -1328 -1280 0
v -1344 -1280 0
v -1344 -1264 0
v -1328 -1264 0
v -560 -1280 0
v -576 -1280 0
v -576 -1264 0
v -560 -1264 0
v -384 -1280 0
v -400 -1280 0
v -400 -1264 0
v -384 -1264 0
v -768 -1296 0
v -784 -1296 0
v -784 -1280 0
v -768 -1280 0
v -384 -1296 0
v -400 -1296 0
v -400 -1280 0
v -384 -1280 0
v -768 -1312 0
v -784 -1312 0
v -784 -1296 0
v -768 -1296 0
v -208 -1328 0
v -224 -1328 0
v -224 -1312 0
v -208 -1312 0
v -208 -1344 0
v -224 -1344 0
v -224 -1328 0
v -208 -1328 0
v -1056 -1376 0
v -1072 -1376 0
v -1072 -1360 0
v -1056 -1360 0
v -1056 -1392 0
v -1072 -1392 0
v -1072 -1376 0
v -1056 -1376 0
v -1264 -1424 0
v -1280 -1424 0
v -1280 -1408 0
v -1264 -1408 0
v -768 -1424 0
v -784 -1424 0
v -784 -1408 0
v -768 -1408 0
v -1264 -1440 0
v -1280 -1440 0
v -1280 -1424 0
v -1264 -1424 0
v -768 -1440 0
v -784 -1440 0
v -784 -1424 0
v -768 -1424 0
v -400 -1440 0
v -416 -1440 0
v -416 -1424 0
v -400 -1424 0
v -400 -1456 0
v -416 -1456 0
v -416 -1440 0
v -400 -1440 0

# Texture cooridinates (Count = 8)
vt 0.2809917 0.6463878
vt 0.2975207 0.6463878
vt 0.2975207 0.6768061
vt 0.2809917 0.6768061
vt 0.2809917 0.6140684
vt 0.2975207 0.6140684
vt 0.2975207 0.6444867
vt 0.2809917 0.6444867

# Normal
vn 0 0 -1

# Mesh description
g untitled_mesh_0003

# Faces
f 1/1/1 2/2/1 3/3/1 4/4/1
f 5/5/1 6/6/1 7/7/1 8/8/1
f 9/1/1 10/2/1 11/3/1 12/4/1
f 13/1/1 14/2/1 15/3/1 16/4/1
f 17/5/1 18/6/1 19/7/1 20/8/1
f 21/5/1 22/6/1 23/7/1 24/8/1
f 25/1/1 26/2/1 27/3/1 28/4/1
f 29/5/1 30/6/1 31/7/1 32/8/1
f 33/1/1 34/2/1 35/3/1 36/4/1
f 37/5/1 38/6/1 39/7/1 40/8/1
f 41/1/1 42/2/1 43/3/1 44/4/1
f 45/5/1 46/6/1 47/7/1 48/8/1
f 49/1/1 50/2/1 51/3/1 52/4/1
f 53/5/1 54/6/1 55/7/1 56/8/1
f 57/1/1 58/2/1 59/3/1 60/4/1
f 61/5/1 62/6/1 63/7/1 64/8/1
f 65/1/1 66/2/1 67/3/1 68/4/1
f 69/5/1 70/6/1 71/7/1 72/8/1
f 73/1/1 74/2/1 75/3/1 76/4/1
f 77/1/1 78/2/1 79/3/1 80/4/1
f 81/5/1 82/6/1 83/7/1 84/8/1
f 85/5/1 86/6/1 87/7/1 88/8/1
f 89/1/1 90/2/1 91/3/1 92/4/1
f 93/5/1 94/6/1 95/7/1 96/8/1
f 97/1/1 98/2/1 99/3/1 100/4/1
f 101/1/1 102/2/1 103/3/1 104/4/1
f 105/1/1 106/2/1 107/3/1 108/4/1
f 109/5/1 110/6/1 111/7/1 112/8/1
f 113/5/1 114/6/1 115/7/1 116/8/1
f 117/5/1 118/6/1 119/7/1 120/8/1
f 121/1/1 122/2/1 123/3/1 124/4/1
f 125/5/1 126/6/1 127/7/1 128/8/1
f 129/1/1 130/2/1 131/3/1 132/4/1
f 133/1/1 134/2/1 135/3/1 136/4/1
f 137/5/1 138/6/1 139/7/1 140/8/1
f 141/5/1 142/6/1 143/7/1 144/8/1
f 145/1/1 146/2/1 147/3/1 148/4/1
f 149/1/1 150/2/1 151/3/1 152/4/1
f 153/5/1 154/6/1 155/7/1 156/8/1
f 157/5/1 158/6/1 159/7/1 160/8/1
f 161/1/1 162/2/1 163/3/1 164/4/1
f 165/1/1 166/2/1 167/3/1 168/4/1
f 169/5/1 170/6/1 171/7/1 172/8/1
f 173/5/1 174/6/1 175/7/1 176/8/1
f 177/1/1 178/2/1 179/3/1 180/4/1
f 181/5/1 182/6/1 183/7/1 184/8/1
f 185/1/1 186/2/1 187/3/1 188/4/1
f 189/5/1 190/6/1 191/7/1 192/8/1
f 193/1/1 194/2/1 195/3/1 196/4/1
f 197/1/1 198/2/1 199/3/1 200/4/1
f 201/5/1 202/6/1 203/7/1 204/8/1
f 205/5/1 206/6/1 207/7/1 208/8/1
f 209/1/1 210/2/1 211/3/1 212/4/1
f 213/1/1 214/2/1 215/3/1 216/4/1
f 217/5/1 218/6/1 219/7/1 220/8/1
f 221/5/1 222/6/1 223/7/1 224/8/1
f 225/1/1 226/2/1 227/3/1 228/4/1
f 229/5/1 230/6/1 231/7/1 232/8/1
f 233/1/1 234/2/1 235/3/1 236/4/1
f 237/1/1 238/2/1 239/3/1 240/4/1
f 241/5/1 242/6/1 243/7/1 244/8/1
f 245/5/1 246/6/1 247/7/1 248/8/1
f 249/1/1 250/2/1 251/3/1 252/4/1
f 253/1/1 254/2/1 255/3/1 256/4/1
f 257/5/1 258/6/1 259/7/1 260/8/1
f 261/5/1 262/6/1 263/7/1 264/8/1
f 265/1/1 266/2/1 267/3/1 268/4/1
f 269/1/1 270/2/1 271/3/1 272/4/1
f 273/5/1 274/6/1 275/7/1 276/8/1
f 277/5/1 278/6/1 279/7/1 280/8/1
f 281/1/1 282/2/1 283/3/1 284/4/1
f 285/1/1 286/2/1 287/3/1 288/4/1
f 289/5/1 290/6/1 291/7/1 292/8/1
f 293/5/1 294/6/1 295/7/1 296/8/1
f 297/1/1 298/2/1 299/3/1 300/4/1
f 301/5/1 302/6/1 303/7/1 304/8/1
f 305/1/1 306/2/1 307/3/1 308/4/1
f 309/5/1 310/6/1 311/7/1 312/8/1
f 313/1/1 314/2/1 315/3/1 316/4/1
f 317/1/1 318/2/1 319/3/1 320/4/1
f 321/5/1 322/6/1 323/7/1 324/8/1
f 325/5/1 326/6/1 327/7/1 328/8/1
f 329/1/1 330/2/1 331/3/1 332/4/1
f 333/5/1 334/6/1 335/7/1 336/8/1

