# Tiled2Unity generated file. Do not modify by hand.
# Wavefront file for 'stage1_mesh_0003.obj'

# Vertices (Count = 228)
v 0 -16 0
v -16 -16 0
v -16 0 0
v 0 0 0
v -16 -16 0
v -32 -16 0
v -32 0 0
v -16 0 0
v -32 -16 0
v -48 -16 0
v -48 0 0
v -32 0 0
v -48 -16 0
v -64 -16 0
v -64 0 0
v -48 0 0
v -64 -16 0
v -80 -16 0
v -80 0 0
v -64 0 0
v -80 -16 0
v -96 -16 0
v -96 0 0
v -80 0 0
v -96 -16 0
v -112 -16 0
v -112 0 0
v -96 0 0
v -112 -16 0
v -128 -16 0
v -128 0 0
v -112 0 0
v -128 -16 0
v -144 -16 0
v -144 0 0
v -128 0 0
v -144 -16 0
v -160 -16 0
v -160 0 0
v -144 0 0
v -160 -16 0
v -176 -16 0
v -176 0 0
v -160 0 0
v -176 -16 0
v -192 -16 0
v -192 0 0
v -176 0 0
v -192 -16 0
v -208 -16 0
v -208 0 0
v -192 0 0
v -208 -16 0
v -224 -16 0
v -224 0 0
v -208 0 0
v -224 -16 0
v -240 -16 0
v -240 0 0
v -224 0 0
v -240 -16 0
v -256 -16 0
v -256 0 0
v -240 0 0
v -256 -16 0
v -272 -16 0
v -272 0 0
v -256 0 0
v -272 -16 0
v -288 -16 0
v -288 0 0
v -272 0 0
v -288 -16 0
v -304 -16 0
v -304 0 0
v -288 0 0
v -304 -16 0
v -320 -16 0
v -320 0 0
v -304 0 0
v 0 -32 0
v -16 -32 0
v -16 -16 0
v 0 -16 0
v -304 -32 0
v -320 -32 0
v -320 -16 0
v -304 -16 0
v 0 -48 0
v -16 -48 0
v -16 -32 0
v 0 -32 0
v -304 -48 0
v -320 -48 0
v -320 -32 0
v -304 -32 0
v 0 -64 0
v -16 -64 0
v -16 -48 0
v 0 -48 0
v -304 -64 0
v -320 -64 0
v -320 -48 0
v -304 -48 0
v 0 -80 0
v -16 -80 0
v -16 -64 0
v 0 -64 0
v -304 -80 0
v -320 -80 0
v -320 -64 0
v -304 -64 0
v 0 -96 0
v -16 -96 0
v -16 -80 0
v 0 -80 0
v -304 -96 0
v -320 -96 0
v -320 -80 0
v -304 -80 0
v 0 -112 0
v -16 -112 0
v -16 -96 0
v 0 -96 0
v -304 -112 0
v -320 -112 0
v -320 -96 0
v -304 -96 0
v 0 -128 0
v -16 -128 0
v -16 -112 0
v 0 -112 0
v -304 -128 0
v -320 -128 0
v -320 -112 0
v -304 -112 0
v 0 -144 0
v -16 -144 0
v -16 -128 0
v 0 -128 0
v -304 -144 0
v -320 -144 0
v -320 -128 0
v -304 -128 0
v 0 -160 0
v -16 -160 0
v -16 -144 0
v 0 -144 0
v -304 -160 0
v -320 -160 0
v -320 -144 0
v -304 -144 0
v 0 -176 0
v -16 -176 0
v -16 -160 0
v 0 -160 0
v -304 -176 0
v -320 -176 0
v -320 -160 0
v -304 -160 0
v 0 -192 0
v -16 -192 0
v -16 -176 0
v 0 -176 0
v -304 -192 0
v -320 -192 0
v -320 -176 0
v -304 -176 0
v 0 -208 0
v -16 -208 0
v -16 -192 0
v 0 -192 0
v -304 -208 0
v -320 -208 0
v -320 -192 0
v -304 -192 0
v 0 -224 0
v -16 -224 0
v -16 -208 0
v 0 -208 0
v -304 -224 0
v -320 -224 0
v -320 -208 0
v -304 -208 0
v 0 -240 0
v -16 -240 0
v -16 -224 0
v 0 -224 0
v -304 -240 0
v -320 -240 0
v -320 -224 0
v -304 -224 0
v 0 -256 0
v -16 -256 0
v -16 -240 0
v 0 -240 0
v -304 -256 0
v -320 -256 0
v -320 -240 0
v -304 -240 0
v 0 -272 0
v -16 -272 0
v -16 -256 0
v 0 -256 0
v -304 -272 0
v -320 -272 0
v -320 -256 0
v -304 -256 0
v 0 -288 0
v -16 -288 0
v -16 -272 0
v 0 -272 0
v -304 -288 0
v -320 -288 0
v -320 -272 0
v -304 -272 0
v 0 -320 0
v -16 -320 0
v -16 -304 0
v 0 -304 0
v -32 -320 0
v -48 -320 0
v -48 -304 0
v -32 -304 0
v -48 -320 0
v -64 -320 0
v -64 -304 0
v -48 -304 0

# Texture cooridinates (Count = 32)
vt 0.2809917 0.5817491
vt 0.2975207 0.5817491
vt 0.2975207 0.6121673
vt 0.2809917 0.6121673
vt 0.2458678 0.5817491
vt 0.2623967 0.5817491
vt 0.2623967 0.6121673
vt 0.2458678 0.6121673
vt 0.2985537 0.5817491
vt 0.3150826 0.5817491
vt 0.3150826 0.6121673
vt 0.2985537 0.6121673
vt 0.2634298 0.5494297
vt 0.2799587 0.5494297
vt 0.2799587 0.5798479
vt 0.2634298 0.5798479
vt 0.2283058 0.5171102
vt 0.2448347 0.5171102
vt 0.2448347 0.5475285
vt 0.2283058 0.5475285
vt 0.3336777 0.3555133
vt 0.3502066 0.3555133
vt 0.3502066 0.3859316
vt 0.3336777 0.3859316
vt 0.3336777 0.3231939
vt 0.3502066 0.3231939
vt 0.3502066 0.3536122
vt 0.3336777 0.3536122
vt 0.1053719 0.7756654
vt 0.1219008 0.7756654
vt 0.1219008 0.8060837
vt 0.1053719 0.8060837

# Normal
vn 0 0 -1

# Mesh description
g stage1_mesh_0003

# Faces
f 1/1/1 2/2/1 3/3/1 4/4/1
f 5/5/1 6/6/1 7/7/1 8/8/1
f 9/5/1 10/6/1 11/7/1 12/8/1
f 13/5/1 14/6/1 15/7/1 16/8/1
f 17/5/1 18/6/1 19/7/1 20/8/1
f 21/5/1 22/6/1 23/7/1 24/8/1
f 25/5/1 26/6/1 27/7/1 28/8/1
f 29/5/1 30/6/1 31/7/1 32/8/1
f 33/5/1 34/6/1 35/7/1 36/8/1
f 37/5/1 38/6/1 39/7/1 40/8/1
f 41/5/1 42/6/1 43/7/1 44/8/1
f 45/5/1 46/6/1 47/7/1 48/8/1
f 49/5/1 50/6/1 51/7/1 52/8/1
f 53/5/1 54/6/1 55/7/1 56/8/1
f 57/5/1 58/6/1 59/7/1 60/8/1
f 61/5/1 62/6/1 63/7/1 64/8/1
f 65/5/1 66/6/1 67/7/1 68/8/1
f 69/5/1 70/6/1 71/7/1 72/8/1
f 73/5/1 74/6/1 75/7/1 76/8/1
f 77/9/1 78/10/1 79/11/1 80/12/1
f 81/13/1 82/14/1 83/15/1 84/16/1
f 85/13/1 86/14/1 87/15/1 88/16/1
f 89/13/1 90/14/1 91/15/1 92/16/1
f 93/13/1 94/14/1 95/15/1 96/16/1
f 97/13/1 98/14/1 99/15/1 100/16/1
f 101/13/1 102/14/1 103/15/1 104/16/1
f 105/13/1 106/14/1 107/15/1 108/16/1
f 109/13/1 110/14/1 111/15/1 112/16/1
f 113/13/1 114/14/1 115/15/1 116/16/1
f 117/13/1 118/14/1 119/15/1 120/16/1
f 121/13/1 122/14/1 123/15/1 124/16/1
f 125/13/1 126/14/1 127/15/1 128/16/1
f 129/13/1 130/14/1 131/15/1 132/16/1
f 133/13/1 134/14/1 135/15/1 136/16/1
f 137/13/1 138/14/1 139/15/1 140/16/1
f 141/13/1 142/14/1 143/15/1 144/16/1
f 145/13/1 146/14/1 147/15/1 148/16/1
f 149/13/1 150/14/1 151/15/1 152/16/1
f 153/13/1 154/14/1 155/15/1 156/16/1
f 157/13/1 158/14/1 159/15/1 160/16/1
f 161/13/1 162/14/1 163/15/1 164/16/1
f 165/13/1 166/14/1 167/15/1 168/16/1
f 169/13/1 170/14/1 171/15/1 172/16/1
f 173/13/1 174/14/1 175/15/1 176/16/1
f 177/13/1 178/14/1 179/15/1 180/16/1
f 181/13/1 182/14/1 183/15/1 184/16/1
f 185/17/1 186/18/1 187/19/1 188/20/1
f 189/17/1 190/18/1 191/19/1 192/20/1
f 193/21/1 194/22/1 195/23/1 196/24/1
f 197/21/1 198/22/1 199/23/1 200/24/1
f 201/21/1 202/22/1 203/23/1 204/24/1
f 205/21/1 206/22/1 207/23/1 208/24/1
f 209/25/1 210/26/1 211/27/1 212/28/1
f 213/25/1 214/26/1 215/27/1 216/28/1
f 217/29/1 218/30/1 219/31/1 220/32/1
f 221/29/1 222/30/1 223/31/1 224/32/1
f 225/29/1 226/30/1 227/31/1 228/32/1

